<svg version="1.1" id="Layer_1" xmlns="http://www.w3.org/2000/svg" xmlns:xlink="http://www.w3.org/1999/xlink" x="0px" y="0px"
	 viewBox="0 0 180 24" style="enable-background:new 0 0 180 24;" xml:space="preserve">
<style type="text/css">
	.st0{fill:#4A4A4A;}
</style>
<path class="st0" d="M3.9,8.1c-3.5-0.1-4.3,4.4-3.8,7c0.3,1.5,1,3,2.5,3.6c1.4,0.6,3.3,0.4,4.6-0.4v-2.1C6.3,16.9,5,17.3,4,17
	c-1.1-0.4-1.4-1.7-1.4-2.7h5.1C7.7,11.7,7.4,8,3.9,8.1z M2.6,12.5c0-0.8,0.3-2.3,1.3-2.4c1.1,0,1.3,1.6,1.3,2.4H2.6z M14.3,11.9
	l3.2,7.1h-2.7l-2-5l-1.8,5H8.3l3.2-7.2L8.5,5h2.6l1.8,4.6L14.5,5h2.8L14.3,11.9z M23.3,8.2c-1,0-1.9,0.6-2.3,1.5h-0.1l-0.4-1.4h-2
	v15.3h2.5c0-1.9,0.2-4-0.2-5.9h0.1c0.6,1.2,2,1.7,3.3,1.2c1.3-0.6,1.8-2.3,2-3.7C26.7,13,26.5,8.1,23.3,8.2L23.3,8.2z M22.5,17
	c-1.6,0-1.4-2.6-1.4-3.6c0-1,0.1-3.7,1.8-3c1.3,0.6,1,3.3,0.9,4.5C23.7,15.6,23.5,16.9,22.5,17L22.5,17z M32.7,8.2
	c0.3,0,0.6,0,0.9,0.1l-0.3,2.4c-2.6-0.7-2.6,2.3-2.6,4.1c0,1.4,0,2.8,0,4.2h-2.6V8.3h2.1l0.3,1.7l0,0C30.9,9.1,31.7,8.1,32.7,8.2
	L32.7,8.2z M38.3,8.2c-3.5-0.1-4.3,4.4-3.8,7c0.3,1.5,1,3,2.5,3.6c1.4,0.6,3.3,0.4,4.7-0.4v-2.1c-0.9,0.5-2.2,1-3.2,0.6
	c-1-0.4-1.4-1.7-1.4-2.7h5.1c0-1.1,0.1-2.2-0.2-3.2C41.4,9.4,40.2,8,38.3,8.2L38.3,8.2z M37,12.5c0-0.8,0.2-2.2,1.2-2.3
	c1.2-0.2,1.4,1.5,1.4,2.3H37z M49.2,14.6c0.6,1.4,0.2,3.3-1.2,4c-1.4,0.8-3.4,0.6-4.7-0.1v-2.2c0.8,0.6,4.2,1.7,3.6-0.5
	c-0.2-0.8-1.1-1.2-1.7-1.6c-0.6-0.4-1.2-0.9-1.5-1.5c-0.7-1.4-0.3-3.3,1.1-4.1c1.4-0.8,3.3-0.5,4.7,0.3l-0.8,1.8
	c-0.5-0.3-1.4-0.7-2-0.5c-0.7,0.2-0.9,0.9-0.6,1.4c0.4,0.7,1.3,1,1.9,1.4C48.4,13.4,48.9,13.9,49.2,14.6L49.2,14.6z M56.5,14.6
	c0.5,1.4,0.2,3.2-1.2,4c-1.4,0.8-3.4,0.6-4.7-0.1v-2.2c0.8,0.6,4.2,1.7,3.6-0.5c-0.2-0.8-1.1-1.2-1.7-1.6c-0.6-0.4-1.2-0.9-1.5-1.5
	c-0.8-1.4-0.3-3.3,1.1-4.1c1.4-0.8,3.3-0.5,4.7,0.3l-0.8,1.8c-0.5-0.3-1.4-0.7-2.1-0.5c-0.6,0.2-0.9,0.8-0.6,1.4
	c0.3,0.7,1.3,1,1.9,1.4C55.7,13.4,56.2,13.9,56.5,14.6L56.5,14.6z M60.6,5l-3.4,13.9h2.6l0.8-3.5h3.6l0.8,3.5h2.6L64.2,5L60.6,5z
	 M61.1,13.2c0.5-2.1,1-4.2,1.3-6.3c0,1.1,0.4,2.4,0.7,3.5c0.2,0.9,0.4,1.9,0.6,2.8H61.1z M73.5,8.2c-1,0-1.9,0.6-2.3,1.5h-0.1
	l-0.4-1.4h-2v15.3h2.5c0-1.9,0.2-4-0.1-5.9h0.1c0.7,1.3,2.3,1.8,3.5,1c1.2-0.7,1.6-2.4,1.8-3.7C76.8,12.9,76.6,8.2,73.5,8.2
	L73.5,8.2z M72.6,17c-1.6,0-1.4-2.6-1.4-3.6c0-1,0.1-3.8,1.9-3c1.3,0.6,1,3.4,0.8,4.5C73.9,15.6,73.6,16.9,72.6,17L72.6,17z
	 M83.1,8.2c-1,0-1.9,0.6-2.3,1.5h-0.1l-0.4-1.4h-2v15.3h2.5c0-1.9,0.2-4-0.2-5.9h0.1c0.6,1.2,2,1.7,3.3,1.2c1.3-0.6,1.8-2.3,2-3.7
	C86.5,13,86.3,8.1,83.1,8.2L83.1,8.2z M82.3,17c-1.6,0-1.4-2.6-1.4-3.6c0-0.9,0.1-3.6,1.8-3c1.4,0.5,1.1,3.4,1,4.5
	C83.5,15.6,83.3,16.9,82.3,17L82.3,17z M93,5h6.2v2.2h-3.7v3.8h3.4v2.3h-3.4v5.6H93V5z M105.3,8.1c0.3,0,0.6,0,0.9,0.1l-0.3,2.4
	c-2.6-0.7-2.6,2.3-2.6,4.1c0,1.4,0,2.8,0,4.2h-2.6V8.3h2.1l0.3,1.7h0.1C103.6,9.1,104.3,8.2,105.3,8.1z M111,8.1
	c-1.2,0-2.4,0.3-3.4,1l0.9,1.8c0.7-0.5,2.3-1.2,3.1-0.4c0.5,0.5,0.4,1.3,0.4,1.9c-2.2,0-4.8,0.2-5.1,2.9c-0.1,1.3,0.2,3.1,1.6,3.6
	c1.4,0.6,2.9-0.2,3.6-1.5l0,0l0.5,1.4h1.8c0-1.7,0-3.5,0-5.2c0-0.6,0-1.2,0-1.8C114.3,9.8,113.2,8,111,8.1L111,8.1z M111.9,14.9
	c0,0.8-0.3,1.9-1.1,2.2c-0.7,0.2-1.2-0.2-1.3-0.8c-0.3-1.8,0.9-2.3,2.4-2.3V14.9z M128.8,9.1c1,1.6,0.7,3.7,0.7,5.5
	c0,1.5,0,2.9,0,4.4h-2.6c0-1.4,0-2.8,0-4.2c0-1.1,0.3-3.5-0.5-4.3c-1.3-1.1-2,1-2.1,1.9c-0.1,0.7-0.1,1.5-0.1,2.2c0,1.4,0,2.9,0,4.3
	h-2.6c0-1.4,0-2.8,0-4.1c0-1.1,0.3-3.5-0.5-4.3c-1.3-1.1-2,1.1-2.1,2c-0.1,0.7,0,1.5,0,2.2c0,1.4,0,2.8,0,4.3h-2.5V8.3h2l0.3,1.4
	h0.2c0.9-2.2,4.4-2,5,0.3h0.1C124.7,8.1,127.5,7.4,128.8,9.1z M135.1,8.1c-3.5-0.1-4.3,4.4-3.8,7c0.3,1.5,1,3,2.5,3.6
	c1.4,0.6,3.3,0.4,4.7-0.4v-2.1c-0.9,0.6-2.2,1-3.2,0.7c-1.1-0.4-1.4-1.7-1.4-2.7h5.1c0-1,0.1-2.1-0.2-3.1C138.2,9.5,137,8,135.1,8.1
	z M133.8,12.5c0-0.8,0.3-2.3,1.3-2.4c1.1,0,1.3,1.6,1.2,2.4H133.8z M150.8,8.3h2.5l-2.1,10.6h-3.3c-0.5-2.9-1-5.8-1.4-8.7l0,0
	c-0.3,2.9-0.9,5.9-1.4,8.8h-3.3l-2.1-10.6h2.5c0.5,2.9,1.1,5.7,1.3,8.6l0,0c0-2.9,0.9-5.8,1.4-8.6h3.3c0.5,2.8,1.2,5.7,1.3,8.6l0,0
	C149.6,14,150.3,11.2,150.8,8.3z M158.3,8.1c-5.7-0.3-5.6,11,0.1,10.9c2.8,0,4-2.8,4-5.3C162.4,11.3,161.4,8,158.3,8.1L158.3,8.1z
	 M158.3,16.9c-1.7,0-1.6-3-1.5-4.1c0.1-1.1,0.6-3.4,2.2-2.4c1.2,0.8,1,3.2,0.8,4.4C159.7,15.7,159.4,17,158.3,16.9L158.3,16.9z
	 M168.7,8.1c0.3,0,0.7,0.1,1,0.2l-0.3,2.4c-2.6-0.7-2.6,2.3-2.6,4.1c0,1.4,0,2.8,0,4.2h-2.7V8.3h2.1l0.3,1.7h0.1
	C166.9,9.1,167.6,8.1,168.7,8.1L168.7,8.1z M178.8,18.9h-2.7l-1.9-4.5l-1,0.9v3.6h-2.5V4.1h2.5c0,3,0,6.1-0.1,9.1l0,0
	c0.8-1.7,1.8-3.3,2.8-4.9h2.7l-2.7,4.4L178.8,18.9z"/>
</svg>
