<svg version="1.1" id="Layer_1" xmlns="http://www.w3.org/2000/svg" xmlns:xlink="http://www.w3.org/1999/xlink" x="0px" y="0px"
	 viewBox="0 0 70 20" style="enable-background:new 0 0 70 20;" xml:space="preserve">
<style type="text/css">
	.st0{fill:#FF7200;}
</style>
<path class="st0" d="M5.2,20H0V0h5.2v2.2H2.7v15.6h2.5V20z M9.3,18.3V1.9h3v13.7h4.1v2.7H9.3z M31.7,10.1c0,2.7-0.5,4.8-1.5,6.2
	c-1,1.5-2.4,2.2-4.3,2.2c-1.9,0-3.3-0.7-4.3-2.2c-1-1.5-1.5-3.5-1.5-6.3c0-2.7,0.5-4.8,1.5-6.2c1-1.4,2.4-2.2,4.3-2.2
	c1.9,0,3.3,0.7,4.3,2.2C31.2,5.3,31.7,7.4,31.7,10.1z M23.2,10.1c0,1.9,0.2,3.3,0.7,4.3c0.5,1,1.1,1.5,2,1.5c1.8,0,2.7-1.9,2.7-5.7
	s-0.9-5.7-2.7-5.7c-0.9,0-1.6,0.5-2.1,1.5C23.4,6.8,23.2,8.2,23.2,10.1z M41.1,9.2H46v8.4c-1.4,0.6-2.9,0.9-4.4,0.9
	c-1.9,0-3.3-0.7-4.3-2.2c-1-1.4-1.5-3.5-1.5-6.3c0-2.6,0.6-4.7,1.7-6.2s2.8-2.2,4.8-2.2c1.3,0,2.5,0.3,3.7,1l-0.9,2.5
	c-0.9-0.5-1.8-0.8-2.5-0.8c-1.1,0-2,0.5-2.7,1.6c-0.7,1-1,2.4-1,4.2c0,1.8,0.2,3.2,0.7,4.2c0.5,1,1.2,1.5,2.1,1.5
	c0.5,0,1-0.1,1.5-0.2v-3.8h-2V9.2z M61.8,10.1c0,2.7-0.5,4.8-1.5,6.2s-2.4,2.2-4.3,2.2c-1.9,0-3.3-0.7-4.3-2.2
	c-1-1.5-1.5-3.5-1.5-6.3c0-2.7,0.5-4.8,1.5-6.2c1-1.4,2.4-2.2,4.3-2.2c1.9,0,3.3,0.7,4.3,2.2C61.3,5.3,61.8,7.4,61.8,10.1z
	 M53.3,10.1c0,1.9,0.2,3.3,0.7,4.3s1.1,1.5,2,1.5c1.8,0,2.7-1.9,2.7-5.7s-0.9-5.7-2.7-5.7c-0.9,0-1.6,0.5-2.1,1.5
	S53.3,8.2,53.3,10.1z M64.8,17.8h2.5V2.2h-2.5V0H70v20h-5.2V17.8z"/>
</svg>
