<svg version="1.1" id="_x31_" xmlns="http://www.w3.org/2000/svg" xmlns:xlink="http://www.w3.org/1999/xlink" x="0px" y="0px"
	 viewBox="0 0 46 30" style="enable-background:new 0 0 46 30;" xml:space="preserve">
<style type="text/css">
	.st0{fill:#FFFFFF;}
</style>
<path id="_x33_" class="st0" d="M25.8,0h-3.2l-6.7,29.9l-5.7-15.2L15.9,0h-4.2l-2,6.2L9.4,7.1C9.2,7.7,9,8.3,8.8,8.9
	c-0.2,0.6-0.3,1.3-0.5,1.9c-0.2-1.1-0.7-2.7-1.5-5L4.7,0h-4l5.5,14.8L0.3,30h4.4l1.8-5.4l0.4-1.1l0.7-2.1c0.3-0.8,0.4-1.6,0.5-2.5
	c0.1,0.7,0.3,1.5,0.5,2.4c0.3,0.9,0.6,1.9,1,3.1l2,5.7h4.2h0h4l1.2-5.8h6.1l1.2,5.8h4.1L25.8,0z M21.6,21l0.8-3.8
	c0.4-2.1,0.7-4,1-5.9c0.3-1.8,0.5-3.7,0.7-5.5c0.4,3.7,0.9,7.2,1.5,10.4l0.9,4.8H21.6z"/>
<polygon id="_x32_" class="st0" points="46,0 35,0 35,30 39.1,30 39.1,16.3 45.3,16.3 45.3,12.9 39.1,12.9 39.1,3.4 46,3.4 "/>
</svg>
